<svg width="180" height="180" viewBox="0 0 180 180" fill="none" xmlns="http://www.w3.org/2000/svg">
  <defs>
    <linearGradient id="g" x1="0" y1="0" x2="180" y2="180" gradientUnits="userSpaceOnUse">
      <stop offset="0" stop-color="#be00cc"/>
      <stop offset="1" stop-color="#0d6efd"/>
    </linearGradient>
  </defs>
  <rect width="180" height="180" rx="40" fill="#0d0420"/>
  <rect width="180" height="180" rx="40" fill="url(#g)" fill-opacity="0.18"/>
  <path d="M55 72c0-9.94 8.06-18 18-18h34c9.94 0 18 8.06 18 18v0c0 4.5-1.66 8.86-4.66 12.24l-7.6 8.55A18 18 0 0 1 99.29 99H80.71a18 18 0 0 1-13.45-6.21l-7.6-8.55A18.001 18.001 0 0 1 55 72Z" fill="url(#g)"/>
  <rect x="60" y="99" width="60" height="30" rx="10" fill="url(#g)" fill-opacity="0.55"/>
  <circle cx="72" cy="76" r="6" fill="#0d0420"/>
  <rect x="94" y="70" width="6" height="14" rx="3" fill="#0d0420"/>
  <rect x="88" y="76" width="18" height="6" rx="3" fill="#0d0420"/>
  <circle cx="118" cy="76" r="5" fill="#0d0420"/>
</svg>
